<svg xmlns="http://www.w3.org/2000/svg" viewBox="0 0 1354.9 489.68"><defs><style>.cls-1{opacity:0.2;}.cls-2{fill:#979797;}.cls-3{font-size:128px;fill:#8aabff;font-family:SofiaProSoftBold, Sofia Pro Soft;}.cls-4{letter-spacing:-0.08em;}.cls-5{letter-spacing:-0.01em;}.cls-6{letter-spacing:0em;}.cls-7{fill:#75676d;}.cls-8{fill:#5b4c52;}.cls-9{opacity:0.6;isolation:isolate;}.cls-10{fill:#a6aeb0;}.cls-11{fill:#e24b4b;}.cls-12{fill:#ffe62e;}.cls-13{fill:#3f3438;}.cls-14{fill:#fff;}</style></defs><g id="Ebene_2" data-name="Ebene 2"><g id="Ebene_1-2" data-name="Ebene 1"><g class="cls-1"><path class="cls-2" d="M277.66,342.37l-17.19-30.65c2-36.41,20.8-70,50.45-90h34.4C308.81,251.62,284.54,294.91,277.66,342.37Zm-145.32,6,17.21-30.67a109.56,109.56,0,0,1,100.89,0l17.2,30.68A179.76,179.76,0,0,0,132.34,348.33ZM54.69,221.77H89.08c29.64,20,48.46,53.53,50.45,89.94l-17.2,30.66C115.46,294.91,91.19,251.62,54.69,221.77ZM122.34,89.26l17.2,30.66c-2,36.41-20.82,70-50.46,90H54.68C91.18,180,115.46,136.73,122.34,89.26ZM200,96.58a179.73,179.73,0,0,0,67.64-13.29L250.44,114a109.55,109.55,0,0,1-100.9,0l-17.2-30.68A179.87,179.87,0,0,0,200,96.58Zm33.21,166.55a56.15,56.15,0,0,1,22.88-41.35h35.68a128.49,128.49,0,0,0-40.88,72.88Zm-56.41,5.95a52.89,52.89,0,0,1,46.24-.29l17.83,31.81a120.57,120.57,0,0,0-81.75,0Zm-33.21-47.31a56.06,56.06,0,0,1,23.35,41.06l-17.83,31.81a128.67,128.67,0,0,0-40.88-72.87Zm23.2-53.25a56.18,56.18,0,0,1-22.9,41.35H108.22A128.68,128.68,0,0,0,149.11,137Zm56.4-6a52.77,52.77,0,0,1-46.23.29L159.12,131a120,120,0,0,0,81.77,0Zm33.22,47.32a56.14,56.14,0,0,1-23.36-41.09L250.89,137a128.61,128.61,0,0,0,40.88,72.89ZM210,221.77h28.66a68.47,68.47,0,0,0-14.28,25.63Zm-10,5.95,14.32,25.55a64.08,64.08,0,0,0-28.7.09Zm-10-5.95L175.66,247.3a68.5,68.5,0,0,0-14.42-25.53Zm0-11.9H161.33a68.29,68.29,0,0,0,14.27-25.64Zm34.36-25.55a68.48,68.48,0,0,0,14.44,25.55H210ZM200,203.92l-14.33-25.55a62.32,62.32,0,0,0,28.7-.09Zm145.32,6h-34.4c-29.65-20-48.48-53.54-50.45-89.95l17.19-30.67C284.54,136.72,308.81,180,345.32,209.87Zm54.68,0H364.94c-45.43-30.74-74.32-82.24-77.46-138.11L305,40.52l-10-6L277.45,65.82a168.58,168.58,0,0,1-154.91,0L105,34.57l-10,6,17.53,31.25c-3.13,55.87-32,107.36-77.45,138.1H0v11.9H35.06c45.43,30.73,74.32,82.22,77.46,138.1L95,391.12l10,5.95,17.54-31.27a168.62,168.62,0,0,1,154.9,0L295,397.07l10-5.95-17.52-31.24c3.14-55.88,32-107.38,77.45-138.11H400Z" transform="translate(0 -34.57)"/></g><text class="cls-3" transform="translate(464.9 228.17)"><tspan class="cls-4">T</tspan><tspan x="60.93" y="0">a</tspan><tspan class="cls-5" x="138.11" y="0">r</tspan><tspan x="189.7" y="0">antul</tspan><tspan class="cls-6" x="489.47" y="0">a</tspan><tspan x="566.02" y="0">NN</tspan></text><path class="cls-7" d="M227.45,202.45s15.3,7.27,50.57-6.37c8.19-3.19-21.21,32.69-25.67,38.89,6-5.77,52-42.63,34-47.3-11.37-2.93-39.35,7.11-43.28,5.09Z" transform="translate(0 -34.57)"/><path class="cls-8" d="M225.81,202.17s19.84,3.43,48.67-6.32c8.41-2.85-17.67,32.92-22.13,39.12,6-5.77,47.81-41,29.75-45.63-11.36-2.94-36.76,4.45-40.69,2.43Z" transform="translate(0 -34.57)"/><path class="cls-7" d="M164.49,192.76c-3.93,2-31.91-8-43.28-5.09-18.06,4.67,28,41.53,34,47.3-4.45-6.2-33.86-42.08-25.66-38.89,35.26,13.64,50.57,6.37,50.57,6.37Z" transform="translate(0 -34.57)"/><path class="cls-8" d="M166.14,191.77c-3.94,2-29.33-5.37-40.69-2.43C107.39,194,149.23,229.2,155.19,235c-4.45-6.19-30.53-42-22.12-39.12,28.83,9.75,48.66,6.32,48.66,6.32Z" transform="translate(0 -34.57)"/><g class="cls-9"><rect class="cls-10" x="200.65" y="68.67" width="6.25" height="60.28"/></g><path class="cls-8" d="M259.17,199.15c0,21.09-24.81,35.06-55.4,35.06s-55.39-14-55.39-35.06c0-37.74,55.39-50.67,55.39-50.67S259.17,161.41,259.17,199.15Z" transform="translate(0 -34.57)"/><path class="cls-11" d="M228.77,168.39a107.76,107.76,0,0,0-50,0s11.19-9.52,25-9.52S228.77,168.39,228.77,168.39Z" transform="translate(0 -34.57)"/><path class="cls-11" d="M228.77,176a83.93,83.93,0,0,0-50,0s11.19-10.93,25-10.93S228.77,176,228.77,176Z" transform="translate(0 -34.57)"/><path class="cls-7" d="M229.87,242.06s16.86,5.48,51.61-13.43c8.07-4.39-17.6,36.78-21.39,43.81,5.42-6.79,48.25-51.23,28.88-53.64-12.19-1.51-39.87,12.67-44.22,11.11Z" transform="translate(0 -34.57)"/><path class="cls-8" d="M228.14,242s21,.89,49.63-13.12c8.35-4.09-13.89,36.54-17.68,43.57,5.42-6.79,44.08-48.94,24.71-51.35-12.18-1.51-37.54,9.57-41.89,8Z" transform="translate(0 -34.57)"/><path class="cls-7" d="M162.79,229.9c-4.35,1.57-32-12.61-44.22-11.11-19.36,2.41,23.47,46.86,28.88,53.65-3.78-7-29.46-48.21-21.38-43.81,34.74,18.91,51.6,13.42,51.6,13.42Z" transform="translate(0 -34.57)"/><path class="cls-8" d="M164.63,229.1c-4.35,1.57-29.7-9.52-41.89-8-19.36,2.41,19.3,44.56,24.71,51.35-3.78-7-26-47.65-17.68-43.56,28.59,14,49.63,13.11,49.63,13.11Z" transform="translate(0 -34.57)"/><path class="cls-7" d="M230.61,252.71s14.45,10.28,53.26,2.62c9-1.79-27.79,29.84-33.51,35.41,7.2-4.86,61.37-34.46,43.6-42.55-11.18-5.09-45,.17-48.64-2.63Z" transform="translate(0 -34.57)"/><path class="cls-8" d="M229,252.13s19.81,7.14,51.28,2.32c9.18-1.4-24.18,30.72-29.9,36.29,7.2-4.86,56.7-33.52,38.94-41.61-11.17-5.09-41.81-2.09-45.5-4.88Z" transform="translate(0 -34.57)"/><path class="cls-7" d="M162.22,245.56c-3.68,2.8-37.45-2.46-48.64,2.63-17.76,8.09,36.4,37.69,43.6,42.55-5.71-5.57-42.53-37.2-33.51-35.41,38.81,7.66,53.26-2.62,53.26-2.62Z" transform="translate(0 -34.57)"/><path class="cls-8" d="M163.74,244.25c-3.69,2.79-34.32-.21-45.5,4.88-17.76,8.09,31.74,36.75,38.94,41.61-5.71-5.57-39.09-37.69-29.9-36.29,31.47,4.82,51.28-2.32,51.28-2.32Z" transform="translate(0 -34.57)"/><path class="cls-7" d="M218.88,259.84s7.28,8.27,31.83,9.15c5.71.2-21,14.09-25.28,16.65,5-1.91,42-12.12,32.4-19.54-6-4.66-25.32-5.83-27.15-8.05Z" transform="translate(0 -34.57)"/><path class="cls-8" d="M218,259.26s11,7.13,30.68,8.69c5.74.45-19,15.13-23.24,17.69,5-1.91,39-12.21,29.46-19.63-6-4.66-23.1-6.75-24.93-9Z" transform="translate(0 -34.57)"/><path class="cls-7" d="M176.86,257.32c-1.83,2.21-21.11,3.38-27.15,8-9.59,7.42,27.37,17.63,32.4,19.54-4.24-2.56-31-16.45-25.28-16.65,24.54-.88,31.83-9.15,31.83-9.15Z" transform="translate(0 -34.57)"/><path class="cls-8" d="M177.59,256.3c-1.83,2.22-18.89,4.31-24.92,9-9.59,7.42,24.41,17.72,29.45,19.63-4.24-2.56-29-17.24-23.24-17.7,19.72-1.55,30.68-8.68,30.68-8.68Z" transform="translate(0 -34.57)"/><ellipse class="cls-8" cx="203.77" cy="199.6" rx="43.39" ry="34.91"/><ellipse class="cls-12" cx="219.14" cy="197.08" rx="13.38" ry="13.61"/><ellipse class="cls-13" cx="219.18" cy="197.08" rx="9.2" ry="9.37"/><ellipse class="cls-12" cx="188.4" cy="197.08" rx="13.38" ry="13.61"/><path class="cls-13" d="M197.63,231.64a9.2,9.2,0,1,1-9.21-9.37A9.29,9.29,0,0,1,197.63,231.64Z" transform="translate(0 -34.57)"/><path class="cls-14" d="M212.45,251.61c0-3-3.89-.6-8.68-.6s-8.68-2.37-8.68.6S199,257,203.77,257,212.45,254.59,212.45,251.61Z" transform="translate(0 -34.57)"/></g></g></svg>